<?xml version="1.0" encoding="UTF-8" standalone="no"?>
<!-- Created with Inkscape (http://www.inkscape.org/) -->

<svg
   version="1.1"
   id="svg1"
   width="722.43445"
   height="601.95312"
   viewBox="0 0 722.43445 601.95312"
   sodipodi:docname="lapiramide.svg"
   inkscape:version="1.3 (0e150ed6c4, 2023-07-21)"
   xmlns:inkscape="http://www.inkscape.org/namespaces/inkscape"
   xmlns:sodipodi="http://sodipodi.sourceforge.net/DTD/sodipodi-0.dtd"
   xmlns="http://www.w3.org/2000/svg"
   xmlns:svg="http://www.w3.org/2000/svg">
  <defs
     id="defs1" />
  <sodipodi:namedview
     id="namedview1"
     pagecolor="#ffffff"
     bordercolor="#000000"
     borderopacity="0.25"
     inkscape:showpageshadow="2"
     inkscape:pageopacity="0.0"
     inkscape:pagecheckerboard="0"
     inkscape:deskcolor="#d1d1d1"
     inkscape:zoom="0.84765625"
     inkscape:cx="412.90323"
     inkscape:cy="356.2765"
     inkscape:window-width="1920"
     inkscape:window-height="1027"
     inkscape:window-x="-8"
     inkscape:window-y="-8"
     inkscape:window-maximized="1"
     inkscape:current-layer="g1" />
  <g
     inkscape:groupmode="layer"
     inkscape:label="Image"
     id="g1"
     transform="translate(-150.56552,-185.93319)">
    <path
       style="fill:#024f66"
       d="M 329.44805,787.11471 C 329.20162,786.86829 329,778.19167 329,767.83333 V 749 h 10.09887 c 11.48639,0 16.08251,1.51629 18.44518,6.08519 3.00402,5.80913 0.85581,13.48592 -4.45932,15.93571 -1.4216,0.65522 -5.17223,1.43107 -8.33473,1.7241 l -5.75,0.53278 -0.0136,4.61111 c -0.0228,7.71138 -0.66225,8.87013 -5.12975,9.29618 -2.17828,0.20773 -4.16213,0.17607 -4.40855,-0.0704 z m 18.36944,-24.50363 c 0.8008,-0.8008 1.21079,-2.09501 0.91108,-2.87602 -0.68709,-1.79054 -7.41628,-5.0461 -8.73964,-4.22822 C 339.44502,755.843 339,758.17536 339,760.68986 v 4.57182 l 3.68075,-0.5973 c 2.02441,-0.32851 4.33594,-1.2525 5.13674,-2.0533 z m 71.1659,22.92215 c -6.19874,-15.70968 -10.64035,-26.00947 -13.10272,-30.3843 -1.65652,-2.9431 -2.86984,-5.46797 -2.69626,-5.61085 0.17357,-0.14287 2.21555,-0.5507 4.53771,-0.90628 5.05668,-0.77431 5.58826,-0.15267 10.14873,11.8682 1.66928,4.4 3.57387,9.35 4.23244,11 l 1.1974,3 0.82473,-4.40941 c 0.45359,-2.42518 2.29844,-8.16105 4.09965,-12.74639 l 3.27493,-8.33697 4.85841,-0.004 c 5.85885,-0.004 6.05599,-1.74205 -2.50537,22.08342 l -6.03674,16.79968 -4.01531,-0.16012 c -3.01823,-0.12036 -4.21454,-0.66502 -4.8176,-2.19336 z M 622.3169,783.66955 C 617.04689,776.76634 615.041,775 612.47161,775 c -2.37748,0 -2.43731,0.17874 -2.00845,6 l 0.44204,6 H 606.4526 602 v -19.08605 -19.08606 l 11.58877,0.33606 c 11.27459,0.32694 11.65414,0.41211 14,3.14181 3.78879,4.40873 3.3505,10.23691 -1.16669,15.51424 -1.96786,2.299 -3.14054,4.18 -2.60595,4.18 0.53459,0 4.11293,3.4875 7.95187,7.75 l 6.9799,7.75 -6.62395,0.16955 -6.62395,0.16954 z m -4.63761,-21.25793 c 2.52883,-2.52883 2.54504,-2.62958 0.70455,-4.37861 -1.03611,-0.98462 -3.12134,-2.07842 -4.63384,-2.43067 -2.71979,-0.63341 -2.75,-0.58532 -2.75,4.37861 0,4.38956 0.25654,5.01905 2.04545,5.01905 1.125,0 3.21023,-1.16477 4.63384,-2.58838 z M 375,769 c 0,-9.9 0,-18.3375 0,-18.75 0,-0.4125 1.9125,-0.75 4.25,-0.75 h 4.25 l 0.27207,18.75 0.27206,18.75 H 379.52207 375 Z m 115.5,16.59214 c -8.90008,-3.94444 -13.62123,-13.61326 -11.4313,-23.41107 2.2073,-9.8755 11.97512,-15.50913 22.75023,-13.12129 7.12133,1.57813 11.59239,5.03766 14.68811,11.36507 2.55583,5.22395 2.6358,5.81125 1.45914,10.71611 -0.96307,4.01456 -2.4146,6.39693 -6.41213,10.52415 L 506.38681,787 499.9434,786.9609 c -3.54387,-0.0215 -7.7934,-0.63745 -9.4434,-1.36872 z m 15.42327,-10.18103 C 508.40179,773.32558 509,772.05493 509,768.87592 c 0,-8.0685 -5.91315,-12.5051 -14.28667,-10.71921 -5.33041,1.13687 -7.71676,3.71181 -7.70674,8.3158 0.007,3.24826 2.46117,7.65628 5.57365,10.01131 3.21073,2.42937 9.81173,1.89868 13.34303,-1.07271 z M 546,769.58179 c 0,-9.58002 -0.28352,-18.15707 -0.63005,-19.06011 -0.54015,-1.40759 0.0663,-1.59763 4.25,-1.33178 L 554.5,749.5 554.37906,763.75 554.25812,778 h 8.37094 c 8.01835,0 8.37036,0.0948 8.35729,2.25 -0.008,1.2375 -0.285,3.2625 -0.61664,4.5 -0.58241,2.17328 -1.00817,2.25 -12.48634,2.25 H 546 Z m 121,-1.45297 v -18.87118 l 9.96933,-0.70679 c 5.48314,-0.38873 10.43314,-0.42015 11,-0.0698 0.56687,0.35034 1.03067,2.18543 1.03067,4.07797 V 756 h -7 c -6.75487,0 -7,0.0855 -7,2.44098 0,3.10727 0.83893,3.58369 7.52571,4.27383 3.01086,0.31075 5.48043,1.06454 5.48794,1.67509 0.008,0.61056 0.285,2.1226 0.61664,3.3601 0.58083,2.16739 0.36003,2.25 -6.01366,2.25 H 676 v 4 4 h 6.5 6.5 v 4.5 4.5 H 678 667 Z M 152.75,724.31067 c -1.62441,-0.4245 -1.76282,-3.21498 -1.92857,-38.88399 -0.0982,-21.13468 -0.21072,-39.43918 -0.25,-40.67668 -0.0685,-2.15681 0.31255,-2.26192 9.1998,-2.53781 5.09918,-0.15829 9.97825,0.10786 10.84238,0.59145 1.37141,0.76748 1.59118,4.91479 1.72877,32.62342 L 172.5,707.17122 190.75,707.04586 209,706.9205 V 715.96025 725 l -27.25,-0.116 c -14.9875,-0.0638 -28.0375,-0.3218 -29,-0.57333 z M 232.65921,710.75 c -0.8364,-18.2832 -0.83967,-44.48952 -0.007,-58.09444 L 233.30393,642 l 8.59804,0.0136 c 4.72891,0.008 9.6436,0.29365 10.92152,0.63585 l 2.32349,0.6222 -0.19101,36.61415 c -0.10506,20.13778 -0.41422,38.52665 -0.68704,40.86415 l -0.49602,4.25 h -10.2309 -10.23091 z m 47.46536,-13.00362 c -0.20648,-14.98551 -0.0411,-33.70242 0.36745,-41.59314 l 0.74287,-14.34676 17.13256,0.35995 c 15.93074,0.3347 17.52156,0.54149 22.67818,2.94787 7.45379,3.47839 12.29637,7.92425 15.38712,14.12659 6.63821,13.32114 0.60906,31.99072 -11.86232,36.73233 -3.18334,1.21031 -3.41094,0.73474 5.99535,12.52678 C 336.86511,716.39706 341,722.71788 341,724.45034 341,724.75265 336.30041,725 330.55646,725 h -10.44353 l -3.02027,-3.75 c -1.66115,-2.0625 -5.84905,-7.57135 -9.30646,-12.2419 -3.45741,-4.67054 -7.13619,-8.65307 -8.17506,-8.85006 -1.7912,-0.33965 -1.86377,0.29332 -1.40347,12.24189 L 298.69306,725 289.59653,724.996 280.5,724.992 Z m 38.14842,-18.90525 c 1.6115,-2.16245 1.85237,-3.51953 1.29014,-7.26873 -0.38021,-2.53543 -1.67496,-5.73832 -2.87721,-7.11754 -1.88044,-2.15722 -3.30393,-2.59216 -10.18592,-3.11227 l -8,-0.60461 0.31509,10.66899 0.31509,10.669 8.58069,-0.28799 c 7.96688,-0.26738 8.72242,-0.47818 10.56212,-2.94685 z M 350.50284,723.25 c 0.70036,-1.70982 6.28963,-17.71616 13.18198,-37.75 4.63431,-13.47047 14.29897,-39.58019 15.454,-41.75 0.72218,-1.35668 2.21597,-1.74693 6.64636,-1.73635 3.14315,0.008 6.69443,0.2764 7.89173,0.59752 2.37202,0.63619 4.49911,5.40948 12.87358,28.88883 2.55022,7.15 6.36978,17.05 8.48792,22 C 420.45735,706.16384 427,722.85773 427,724.0206 c 0,1.11024 -9.36772,1.30193 -16.41553,0.33592 -4.63235,-0.63493 -4.73311,-0.72826 -7.59099,-7.03116 l -2.89631,-6.3877 -12.29248,0.28117 -12.29248,0.28117 -2.5061,6.7414 -2.50611,6.74141 -10.35699,0.009 c -9.472,0.008 -10.29574,-0.14093 -9.64017,-1.7414 z m 43.03807,-31 c -0.37019,-0.9625 -1.57825,-4.675 -2.68458,-8.25 -1.10634,-3.575 -2.50654,-7.79868 -3.11156,-9.38595 -1.0017,-2.62798 -1.16579,-2.70821 -1.83563,-0.89748 -0.40457,1.09367 -1.62788,6.10485 -2.71846,11.13596 L 381.2078,694 h 6.50309 c 5.78316,0 6.42857,-0.19374 5.83002,-1.75 z m 50.11509,23 c -0.96427,-14.56145 -0.75974,-70.53777 0.26364,-72.15422 1.2025,-1.89937 17.01512,-0.90593 22.8703,1.43685 C 474.58845,647.65297 484,660.6939 484,668.3794 484,677.73826 469.8545,701 464.16336,701 461.41419,701 461,702.77833 461,714.58179 V 725 h -8.34918 -8.34917 z m 24.74651,-37.29031 c 4.26864,-2.70709 4.72464,-3.33729 4.16055,-5.75 C 471.93449,669.52121 464.96872,662 463.10734,662 c -0.53639,0 -1.11255,4.24827 -1.28872,9.50224 -0.20777,6.19641 0.0481,9.50146 0.7356,9.5 0.57982,-10e-4 3.21155,-1.37038 5.84829,-3.04255 z M 491.82517,699.25 c -0.14246,-20.98156 -0.0682,-53.13499 0.13054,-56.5 0.0539,-0.91189 7.61831,-0.9729 15.71393,-0.12674 5.94409,0.62128 5.97202,0.63955 8.79134,5.75 3.50189,6.3477 16.64819,27.62674 17.06795,27.62674 0.16911,0 2.36928,-3.825 4.88927,-8.5 2.51999,-4.675 6.6504,-12.33776 9.17868,-17.02835 l 4.59688,-8.52835 13.15312,0.27835 L 578.5,642.5 v 41.24717 41.24716 l -9.6054,0.003 -9.60539,0.003 -0.6375,-6.75 c -0.35062,-3.7125 -0.69659,-12.6 -0.76881,-19.75 -0.11586,-11.46973 -1.30276,-29.16048 -1.72556,-25.71942 -0.28428,2.31377 -8.30676,14.9884 -11.30538,17.86126 -3.90517,3.74138 -8.489,3.67267 -16.85196,-0.25261 -6.45013,-3.02747 -11.4909,-7.12403 -15.86003,-12.88923 l -2.27354,-3 0.6016,23.5775 c 0.33087,12.96762 0.31278,24.33012 -0.0402,25.25 -0.53333,1.38984 -2.14474,1.6725 -9.53481,1.6725 H 492 Z m 101.72132,22.5 c 0.38797,-1.7875 1.80469,-6.4 3.14826,-10.25 1.34358,-3.85 4.16097,-11.95 6.26088,-18 2.09991,-6.05 4.69085,-13.025 5.75766,-15.5 1.0668,-2.475 4.36344,-11.5875 7.32587,-20.25 L 621.42539,642 h 7.13232 c 5.53926,0 7.47634,0.39088 8.67254,1.75 0.84713,0.9625 4.72502,10.525 8.61754,21.25 6.5798,18.12921 10.8924,29.80273 18.2183,49.31395 1.61365,4.29767 2.93391,8.46017 2.93391,9.25 0,1.14789 -1.91772,1.43605 -9.55706,1.43605 h -9.55706 l -3.09184,-7 -3.09183,-7 H 629.3051 616.90799 l -2.44423,5.25 c -1.34432,2.8875 -2.44862,6.0375 -2.45399,7 -0.009,1.5442 -1.13632,1.75 -9.58923,1.75 h -9.57945 z m 40.96382,-28.92698 c 0.28195,-0.28195 -0.91775,-4.9314 -2.66599,-10.33212 -3.54226,-10.94284 -3.29433,-10.99659 -6.9465,1.50592 -2.95868,10.12847 -2.88364,10.33259 3.60102,9.79483 3.02437,-0.2508 5.72953,-0.68669 6.01147,-0.96863 z m 51.15636,31.51031 C 685.3,723.96667 685,705.29167 685,682.83333 V 642 l 7.75,0.0136 c 4.2625,0.008 8.75854,0.28396 9.9912,0.61434 l 2.24121,0.60067 -0.12184,39.13567 c -0.067,21.52462 -0.31837,39.92317 -0.55859,40.88567 -0.37445,1.50036 -1.68723,1.75 -9.2027,1.75 -4.82127,0 -9.06595,-0.3 -9.43261,-0.66667 z M 717.65005,709 c -0.35386,-8.525 -0.64489,-27.0875 -0.64672,-41.25 L 717,642 l 17.25,0.0119 c 18.90051,0.013 24.16269,0.91085 32.75861,5.58933 6.15943,3.35238 11.04325,8.76153 14.74863,16.33505 3.80518,7.7775 4.41035,21.92808 1.35822,31.75878 -3.64387,11.73663 -12.14657,20.71622 -23.8884,25.22821 -6.83001,2.62454 -20.22483,4.25977 -31.77343,3.87888 L 718.29344,724.5 Z m 33.03485,-5.06362 c 7.32669,-2.76821 11.77625,-11.49669 11.7321,-23.01425 -0.0494,-12.90227 -7.09463,-19.85423 -20.167,-19.90017 L 736,661 v 22 22 h 5.9349 c 3.2642,0 7.2017,-0.47863 8.75,-1.06362 z m 50.37587,20.14281 c -1.20817,-0.78164 -0.66824,-3.3111 3.363,-15.75516 4.50243,-13.89855 17.71928,-52.62868 21.18308,-62.07403 l 1.55857,-4.25 6.66729,0.0153 c 3.66701,0.008 7.23802,0.37757 7.93559,0.82033 1.48085,0.93992 5.16877,10.23285 13.16136,33.16436 3.16302,9.075 6.45011,17.85 7.30464,19.5 1.87659,3.62348 10.7657,27.24134 10.7657,28.60387 0,0.57634 -4.06002,0.85113 -10.06379,0.68111 L 852.87243,724.5 l -2.87258,-6.5 -2.87258,-6.5 -10.31364,-0.25284 c -5.67249,-0.13907 -10.89657,0.12512 -11.60905,0.58709 -0.71248,0.46196 -2.3756,3.50074 -3.69582,6.75284 l -2.4004,5.91291 -8.30418,0.25516 c -4.5673,0.14033 -8.95183,-0.16385 -9.74341,-0.67597 z M 840.02759,693.25 C 840.08076,691.80464 833.50999,673 832.95177,673 832.36167,673 829,689.44887 829,692.33626 c 0,1.34999 1.03721,1.66374 5.5,1.66374 3.025,0 5.51242,-0.3375 5.52759,-0.75 z M 338.25,596.29427 c -2.80729,-0.54071 -2.81931,-1.61367 -0.0692,-6.17624 3.45345,-5.7295 43.23711,-65.42518 59.72516,-89.61803 8.24645,-12.1 19.41431,-28.525 24.81746,-36.5 12.42256,-18.33558 35.86592,-52.18396 52.29126,-75.5 12.92895,-18.35286 31.51439,-45.804 33.69096,-49.76237 1.1546,-2.09977 1.29095,-1.99965 3.22198,2.36577 1.44435,3.2652 2.19664,7.79776 2.65186,15.97746 0.79763,14.3325 1.98358,18.61345 10.64321,38.41914 3.84763,8.8 8.33253,19.375 9.96647,23.5 2.55639,6.45385 8.44342,19.27347 27.32358,59.5 4.74718,10.11445 15.42754,33.05669 24.50028,52.6285 3.85715,8.32067 8.54763,18.10817 10.42329,21.75 C 603.45896,564.57226 618,595.43811 618,596.52851 c 0,0.59024 -276.67218,0.35857 -279.75,-0.23424 z m 411.25,-0.0774 -43,-0.30489 -6.29294,-10.20601 C 696.74595,580.0927 688.5638,567.85 682.02451,558.5 c -6.53928,-9.35 -17.13124,-24.875 -23.53768,-34.5 -6.40644,-9.625 -13.84109,-20.65 -16.52143,-24.5 -8.7705,-12.5978 -26.0024,-38.43285 -26.50031,-39.73077 -0.38863,-1.01307 8.07136,-1.27487 41.91818,-1.29717 l 42.40508,-0.0279 9.35583,13.27224 c 15.89839,22.55356 37.40624,53.75815 53.26798,77.28364 8.34367,12.375 18.56979,27.225 22.72472,33 8.92747,12.40842 10.50854,15.10698 8.6483,14.7609 C 793.07833,596.6294 773.15,596.3846 749.5,596.21691 Z m -521.83333,-0.88358 c -1.79184,-1.79183 -1.36746,-2.4886 23.34806,-38.33333 6.25736,-9.075 14.28231,-20.775 17.83322,-26 6.22921,-9.16598 7.9976,-11.5788 12.95183,-17.67166 1.26488,-1.55559 6.07287,-8.45334 10.68443,-15.32834 12.19732,-18.18399 25.22331,-37.10752 26.24887,-38.13308 0.499,-0.499 18.95547,-0.77474 42.04603,-0.62817 L 401.93573,459.5 392.18594,474 c -5.36239,7.975 -17.15417,25.3 -26.20396,38.5 -9.0498,13.2 -20.13663,29.4 -24.63741,36 -4.50078,6.6 -13.05703,19.12719 -19.0139,27.83819 -5.95687,8.71101 -11.27488,16.69851 -11.8178,17.75 C 309.5655,595.923 307.89062,596 268.92954,596 c -22.32791,0 -40.89621,-0.3 -41.26287,-0.66667 z M 604.02224,444.46113 C 603.9893,442.92227 547.76982,358.85561 539.51397,348 533.219,339.72276 520,319.08859 520,317.53972 c 0,-0.74807 1.74392,-3.56635 3.87538,-6.26285 2.13146,-2.69649 7.44977,-10.2744 11.81847,-16.83979 4.3687,-6.5654 11.84978,-17.77283 16.62462,-24.9054 C 557.09331,262.3991 561,256.18504 561,255.72266 c 0,-1.62185 2.0481,0.44858 4.05102,4.09519 1.11235,2.02518 4.04557,6.38215 6.51828,9.68215 2.47271,3.3 7.43815,10.275 11.03431,15.5 3.59616,5.225 11.19508,16.25 16.8865,24.5 5.69142,8.25 15.66703,22.875 22.16803,32.5 6.501,9.625 14.22762,20.875 17.17028,25 9.38925,13.16179 9.27429,11.41489 1.56474,23.77755 -3.67768,5.89735 -9.46167,14.77245 -12.85332,19.72245 -3.39164,4.95 -9.17568,13.725 -12.85342,19.5 -7.45176,11.7012 -10.63098,16.01237 -10.66418,14.46113 z m -191.41099,-4.03181 c -0.3315,-0.86388 -9.42278,-14.82695 -20.20283,-31.02904 -12.24417,-18.40262 -19.38092,-30.02956 -19.01608,-30.98033 0.79126,-2.06197 20.65083,-31.10314 27.64086,-40.41995 3.09483,-4.125 8.42512,-11.55 11.84509,-16.5 6.46785,-9.36145 18.18326,-26.08441 23.11841,-33 1.56998,-2.2 7.27549,-10.60754 12.67891,-18.68342 5.40341,-8.07589 10.07393,-14.71339 10.37892,-14.75 0.30499,-0.0366 2.10499,2.45383 4,5.53433 1.89501,3.0805 5.27224,8.143 7.50496,11.25 6.11843,8.51428 26.96271,39.34289 28.27442,41.81777 0.97202,1.83398 0.63322,3.08193 -2.19526,8.08602 -3.46707,6.13388 -21.12325,32.4107 -31.74551,47.2453 -3.34752,4.675 -9.84078,14.16748 -14.42946,21.09439 -4.58868,6.92692 -9.87073,14.59575 -11.73787,17.04184 -1.86715,2.4461 -8.03944,11.29112 -13.7162,19.65561 C 419.33285,435.15633 414.35652,442 413.9511,442 c -0.40542,0 -1.00835,-0.70681 -1.33985,-1.57068 z M 333,440.07341 c 0,-0.76019 6.59464,-11.33227 11.3625,-18.2156 C 354.88492,406.66666 361.29332,398 362.00369,398 c 0.48438,0 3.59593,3.9375 6.91457,8.75 C 384.18553,428.88976 391,439.16464 391,440.04495 391,440.62973 379.75667,441 362,441 c -17.13507,0 -29,-0.3791 -29,-0.92659 z m 296,0.44045 c 0,-2.09477 26.77657,-42.61225 28.54053,-43.18664 0.52771,-0.17184 2.06173,1.37174 3.40894,3.43017 1.3472,2.05844 5.65272,8.24261 9.56781,13.74261 3.91509,5.5 9.70632,13.7125 12.86941,18.25 l 5.75106,8.25 H 659.06888 C 642.53099,441 629,440.78124 629,440.51386 Z M 508.20938,297.74935 c -1.03864,-2.83147 -7.21289,-12.73562 -13.87026,-22.24935 -7.58639,-10.84137 -20.53706,-30.89042 -21.37175,-33.08581 -1.13839,-2.9942 -0.0656,-5.11077 8.57264,-16.91419 2.81761,-3.85 9.99318,-14.2 15.94571,-23 5.95254,-8.8 11.03116,-16.225 11.28582,-16.5 0.25467,-0.275 0.97275,0.32426 1.59574,1.33168 1.11792,1.80775 15.70819,22.40051 21.3747,30.16832 4.62145,6.33522 15.25802,23.33188 15.25802,24.38149 0,0.52429 -1.95981,4.25294 -4.35513,8.28588 -4.22369,7.11134 -31.1774,48.57235 -32.55818,50.08198 -0.37696,0.41214 -1.22175,-0.71286 -1.87731,-2.5 z"
       id="path30" />
  </g>
</svg>
